<svg xmlns="http://www.w3.org/2000/svg" width="300" height="200" viewBox="0 0 300 200">
  <path fill="#798291" d="M158.298129,61.636885 C159.957755,63.1460912 165.781533,73.0162994 165.781533,73.2577724 C165.570308,80.1397525 185.727218,92.3643224 196.861798,98.4916994 C189.71032,117.537881 171.575136,131 150,131 C128.243814,131 109.68618,117.175672 102.836451,97.7370963 C105.552203,99.2161183 113.277007,105.071838 115.027158,106.067914 C117.380809,107.4262 115.147858,96.4995472 115.027158,92.6057954 C115.932408,93.0283731 117.048884,93.1491096 118.044659,92.8774525 C121.665661,95.4732871 126.010863,97.6163598 128.666264,100.212194 C130.899215,102.476004 125.407363,90.6136432 124.652987,88.7422276 C124.019312,86.9613643 133.132167,75.8837911 133.494267,73.408693 C134.037417,70.7524902 134.037417,72.5333535 134.852142,74.0425596 C135.727218,75.8837911 136.270368,77.8759433 137.507544,79.5058859 C142.576946,86.629339 168.044659,107.305463 174.803862,106.188651 C176.282438,105.947178 158.720579,91.0965892 156.849728,89.7383037 C156.729028,89.6175672 156.729028,89.4968307 156.608328,89.3459101 C161.315631,90.8551162 165.781533,92.6057954 170.790585,93.3603984 C173.053712,93.6018714 174.502112,90.6136432 172.269161,89.3459101 C169.161135,87.7461515 165.902233,86.1162089 162.432106,84.9993963 C160.53108,83.8825838 158.539529,82.6450347 156.819553,81.3773015 C154.828002,80.1397525 153.349427,78.3890733 151.991551,76.5176577 C152.112251,76.2761847 152.112251,76.0045276 152.232951,75.7630546 C154.073627,73.5294295 155.190103,71.1448838 155.703078,68.1566556 C155.823778,68.1566556 155.823778,68.005735 155.823778,68.005735 C156.729028,66.0135829 157.423054,63.9006942 158.177429,61.7576215 C158.177429,61.7576215 158.298129,61.7576215 158.298129,61.636885 Z M177.761014,74.8877151 C178.062764,74.5255056 180.295715,74.5255056 180.778515,74.7669786 C183.343392,76.2761847 186.119493,75.6423181 188.714544,77.1213402 C192.727821,79.5058859 195.866023,83.7618473 199.7586,86.2671295 C199.45685,89.0742529 198.974049,91.8813764 198.219674,94.5979475 C193.844297,90.7343797 189.83102,86.7198913 185.606518,82.7657712 C183.132167,80.260489 180.295715,77.6344703 177.761014,74.8877151 Z M150.030175,31 C177.670489,31 200,53.4569876 200,81.0150921 L200,81.0150921 L200,83.2789013 C197.767049,81.498038 195.624623,79.6266224 193.512372,77.7552068 C190.162945,74.7669786 179.90344,63.3875641 179.90344,63.3875641 C179.90344,63.3875641 171.726011,67.0096589 171.303561,67.0096589 L171.303561,67.0096589 L158.328304,52.5514639 C158.328304,52.5514639 147.223899,63.6592212 143.874472,68.9112587 C142.214846,69.7865982 140.61557,70.6317537 138.865419,71.3863568 C137.266144,69.2734682 132.136391,62.874434 132.136391,62.874434 C132.136391,62.874434 123.536512,72.0202234 120.51901,75.2499245 C118.768859,77.1213402 112.703681,77.4835497 111.044056,79.3549653 C110.10863,79.1134923 104.194327,88.5007546 100.995775,91.1267733 C100.3621,87.8970721 100,84.5164503 100,81.0150921 C100,53.4569876 122.450211,31 150.030175,31 Z"/>
</svg>
