<?xml version="1.0" encoding="UTF-8"?>
<svg width="1024px" height="1024px" viewBox="0 0 1024 1024" fill="currentColor" version="1.1" xmlns="http://www.w3.org/2000/svg" xmlns:xlink="http://www.w3.org/1999/xlink">
    <g stroke="none" stroke-width="1">
        <g transform="translate(-132.000000, -1634.000000)">
            <path d="M728.972842,1947.7217 C745.967411,1963.17597 805.602897,2064.24691 805.602897,2066.71959 C803.439952,2137.19107 1009.84671,2262.37066 1123.86482,2325.115 C1050.63368,2520.1479 864.92939,2658 644,2658 C421.216657,2658 231.186482,2516.43888 161.045263,2317.38787 C188.854556,2332.53305 267.956548,2392.49562 285.878093,2402.69544 C309.979481,2416.60429 287.114062,2304.71536 285.878093,2264.84334 C295.147858,2269.17054 306.580567,2270.40688 316.777308,2267.62511 C353.856367,2294.20646 398.351237,2316.15152 425.542547,2342.73287 C448.407966,2365.91428 392.171394,2244.44371 384.44659,2225.28041 C377.957755,2207.04437 471.273386,2093.61002 474.981291,2068.26502 C480.54315,2041.0655 480.54315,2059.30154 488.885938,2074.75581 C497.846711,2093.61002 503.40857,2114.00966 516.077248,2130.70027 C567.98793,2203.64443 828.777308,2415.36794 897.991551,2403.93178 C913.132167,2401.4591 733.298733,2249.38907 714.141219,2235.48023 C712.90525,2234.24389 712.90525,2233.00755 711.669282,2231.46212 C759.872058,2246.91639 805.602897,2264.84334 856.895594,2272.57048 C880.070006,2275.04316 894.901629,2244.44371 872.03621,2231.46212 C840.210018,2215.08059 806.838865,2198.38998 771.304768,2186.95382 C751.838262,2175.51766 731.44478,2162.84516 713.832227,2149.86357 C693.438745,2137.19107 678.298129,2119.26411 664.393482,2100.10081 C665.629451,2097.62813 665.629451,2094.84636 666.865419,2092.37368 C685.713941,2069.50136 697.146651,2045.08361 702.399517,2014.48415 C703.635486,2014.48415 703.635486,2012.93873 703.635486,2012.93873 C712.90525,1992.53909 720.01207,1970.90311 727.736874,1948.95804 C727.736874,1948.95804 728.972842,1948.95804 728.972842,1947.7217 Z M928.272782,2083.4102 C931.362704,2079.70118 954.228123,2079.70118 959.171998,2082.17386 C985.436331,2097.62813 1013.86361,2091.13734 1040.43693,2106.28252 C1081.53289,2130.70027 1113.66807,2174.28132 1153.52806,2199.93541 C1150.43814,2228.68035 1145.49427,2257.42529 1137.76946,2285.24298 C1092.9656,2245.68005 1051.86964,2204.57169 1008.61074,2164.0815 C983.273386,2138.42741 954.228123,2111.53698 928.272782,2083.4102 Z M644.308992,1634 C927.345806,1634 1156,1863.95955 1156,2146.15454 L1156,2146.15454 L1156,2169.33595 C1133.13458,2151.09991 1111.19614,2131.93661 1089.56669,2112.77332 C1055.26856,2082.17386 950.211225,1965.64866 950.211225,1965.64866 C950.211225,1965.64866 866.474351,2002.73891 862.148461,2002.73891 L862.148461,2002.73891 L729.281835,1854.68699 C729.281835,1854.68699 615.572722,1968.43043 581.274593,2022.21129 C564.280024,2031.17477 547.90344,2039.82916 529.981895,2047.55629 C513.605311,2025.92031 461.076645,1960.3942 461.076645,1960.3942 C461.076645,1960.3942 373.013881,2054.04709 342.114665,2087.11923 C324.19312,2106.28252 262.085697,2109.99155 245.091129,2129.15484 C235.512372,2126.68216 174.949909,2222.80773 142.196741,2249.69816 C135.707906,2216.62602 132,2182.00845 132,2146.15454 C132,1863.95955 361.890163,1634 644.308992,1634 Z"></path>
        </g>
    </g>
</svg>