<svg width="18px" height="18px" viewBox="0 0 18 18" version="1.1" xmlns="http://www.w3.org/2000/svg" xmlns:xlink="http://www.w3.org/1999/xlink">
    <g stroke="none" stroke-width="1" fill="none" fill-rule="evenodd">
        <g transform="translate(-957.000000, -209.000000)" fill="currentColor" fill-rule="nonzero">
            <g transform="translate(422.000000, 163.000000)">
                <g transform="translate(519.000000, 30.000000)">
                    <path d="M32.4210526,16.5263158 L25.5303301,23.4170383 C25.2374369,23.7099316 24.7625631,23.7099316 24.4696699,23.4170383 L17.5789474,16.5263158 C17.2882712,16.2356396 16.816992,16.2356396 16.5263158,16.5263158 C16.2356396,16.816992 16.2356396,17.2882712 16.5263158,17.5789474 L23.4170383,24.4696699 C23.7099316,24.7625631 23.7099316,25.2374369 23.4170383,25.5303301 L16.5263158,32.4210526 C16.2356396,32.7117288 16.2356396,33.183008 16.5263158,33.4736842 C16.816992,33.7643604 17.2882712,33.7643604 17.5789474,33.4736842 L24.4696699,26.5829617 C24.7625631,26.2900684 25.2374369,26.2900684 25.5303301,26.5829617 L32.4210526,33.4736842 C32.7117288,33.7643604 33.183008,33.7643604 33.4736842,33.4736842 C33.7643604,33.183008 33.7643604,32.7117288 33.4736842,32.4210526 L26.5829617,25.5303301 C26.2900684,25.2374369 26.2900684,24.7625631 26.5829617,24.4696699 L33.4736842,17.5789474 C33.7643604,17.2882712 33.7643604,16.816992 33.4736842,16.5263158 C33.183008,16.2356396 32.7117288,16.2356396 32.4210526,16.5263158 Z"></path>
                </g>
            </g>
        </g>
    </g>
</svg>